<?xml version="1.0" standalone="no"?>
<!DOCTYPE svg PUBLIC "-//W3C//DTD SVG 20010904//EN"
 "http://www.w3.org/TR/2001/REC-SVG-20010904/DTD/svg10.dtd">
<svg version="1.0" xmlns="http://www.w3.org/2000/svg"
 width="148.000000pt" height="148.000000pt" viewBox="0 0 148.000000 148.000000"
 preserveAspectRatio="xMidYMid meet">
<metadata>
Created by potrace 1.14, written by Peter Selinger 2001-2017
</metadata>
<g transform="translate(0.000000,148.000000) scale(0.100000,-0.100000)"
fill="#000000" stroke="none">
<path d="M160 1180 l0 -140 140 0 140 0 0 140 0 140 -140 0 -140 0 0 -140z
m240 0 l0 -100 -100 0 -100 0 0 100 0 100 100 0 100 0 0 -100z"/>
<path d="M240 1180 l0 -60 60 0 60 0 0 60 0 60 -60 0 -60 0 0 -60z"/>
<path d="M480 1300 c0 -13 7 -20 20 -20 17 0 20 -7 20 -40 0 -33 -3 -40 -20
-40 -13 0 -20 -7 -20 -20 0 -13 7 -20 20 -20 17 0 20 -7 20 -40 0 -33 -3 -40
-20 -40 -13 0 -20 -7 -20 -20 0 -13 7 -20 20 -20 13 0 20 7 20 20 0 13 7 20
20 20 13 0 20 -7 20 -20 0 -13 7 -20 20 -20 13 0 20 7 20 20 0 13 7 20 20 20
13 0 20 -7 20 -20 0 -13 7 -20 20 -20 17 0 20 7 20 40 0 33 3 40 20 40 18 0
20 -7 20 -60 0 -53 -2 -60 -20 -60 -13 0 -20 -7 -20 -20 0 -13 -7 -20 -20 -20
-17 0 -20 -7 -20 -40 0 -33 -3 -40 -20 -40 -18 0 -20 7 -20 60 0 53 -2 60 -20
60 -13 0 -20 -7 -20 -20 0 -13 -7 -20 -20 -20 -13 0 -20 7 -20 20 0 13 -7 20
-20 20 -18 0 -20 -7 -20 -60 0 -53 -2 -60 -20 -60 -13 0 -20 7 -20 20 0 13 -7
20 -20 20 -13 0 -20 -7 -20 -20 0 -17 -7 -20 -40 -20 -33 0 -40 3 -40 20 0 13
7 20 20 20 13 0 20 7 20 20 0 17 7 20 40 20 33 0 40 3 40 20 0 18 -7 20 -60
20 l-60 0 0 -40 0 -40 -40 0 c-33 0 -40 3 -40 20 0 13 7 20 20 20 13 0 20 7
20 20 0 13 -7 20 -20 20 -13 0 -20 -7 -20 -20 0 -17 -7 -20 -40 -20 l-40 0 0
-40 c0 -33 3 -40 20 -40 13 0 20 -7 20 -20 0 -13 -7 -20 -20 -20 -18 0 -20 -7
-20 -60 l0 -60 80 0 c73 0 80 2 80 20 0 13 -7 20 -20 20 -13 0 -20 7 -20 20 0
13 7 20 20 20 13 0 20 7 20 20 0 13 7 20 20 20 13 0 20 -7 20 -20 0 -18 7 -20
80 -20 l80 0 0 -40 c0 -33 -3 -40 -20 -40 -17 0 -20 -7 -20 -40 0 -33 -3 -40
-20 -40 -13 0 -20 7 -20 20 0 13 -7 20 -20 20 -13 0 -20 7 -20 20 0 13 7 20
20 20 13 0 20 7 20 20 0 13 -7 20 -20 20 -13 0 -20 -7 -20 -20 0 -13 -7 -20
-20 -20 -13 0 -20 -7 -20 -20 0 -18 -7 -20 -80 -20 -73 0 -80 -2 -80 -20 0
-17 7 -20 40 -20 l40 0 0 -40 0 -40 -40 0 c-33 0 -40 3 -40 20 0 13 -7 20 -20
20 -13 0 -20 -7 -20 -20 0 -13 7 -20 20 -20 13 0 20 -7 20 -20 0 -13 -7 -20
-20 -20 -13 0 -20 -7 -20 -20 0 -13 7 -20 20 -20 13 0 20 7 20 20 0 13 7 20
20 20 13 0 20 -7 20 -20 0 -18 7 -20 60 -20 l60 0 0 40 0 40 40 0 c33 0 40 -3
40 -20 0 -13 -7 -20 -20 -20 -13 0 -20 -7 -20 -20 0 -13 7 -20 20 -20 13 0 20
7 20 20 0 13 7 20 20 20 17 0 20 -7 20 -40 0 -33 3 -40 20 -40 13 0 20 -7 20
-20 0 -13 -7 -20 -20 -20 -17 0 -20 -7 -20 -40 0 -33 3 -40 20 -40 13 0 20 7
20 20 0 13 7 20 20 20 17 0 20 7 20 40 0 33 3 40 20 40 13 0 20 7 20 20 0 13
7 20 20 20 17 0 20 -7 20 -40 0 -33 3 -40 20 -40 17 0 20 7 20 40 0 33 3 40
20 40 18 0 20 -7 20 -60 0 -53 -2 -60 -20 -60 -13 0 -20 -7 -20 -20 0 -13 -7
-20 -20 -20 -13 0 -20 7 -20 20 0 13 -7 20 -20 20 -13 0 -20 -7 -20 -20 0 -13
-7 -20 -20 -20 -13 0 -20 -7 -20 -20 0 -17 7 -20 40 -20 33 0 40 -3 40 -20 0
-13 7 -20 20 -20 13 0 20 -7 20 -20 0 -17 -7 -20 -40 -20 -33 0 -40 -3 -40
-20 0 -18 7 -20 80 -20 73 0 80 2 80 20 0 18 7 20 60 20 l60 0 0 40 c0 33 -3
40 -20 40 -13 0 -20 -7 -20 -20 0 -13 -7 -20 -20 -20 -13 0 -20 7 -20 20 0 13
-7 20 -20 20 -17 0 -20 7 -20 40 0 33 3 40 20 40 13 0 20 -7 20 -20 0 -17 7
-20 40 -20 33 0 40 3 40 20 0 13 7 20 20 20 13 0 20 7 20 20 0 13 7 20 20 20
17 0 20 -7 20 -40 0 -33 -3 -40 -20 -40 -13 0 -20 -7 -20 -20 0 -13 7 -20 20
-20 13 0 20 -7 20 -20 0 -13 7 -20 20 -20 13 0 20 -7 20 -20 0 -13 -7 -20 -20
-20 -13 0 -20 -7 -20 -20 0 -18 7 -20 60 -20 53 0 60 2 60 20 0 13 -7 20 -20
20 -13 0 -20 7 -20 20 0 13 -7 20 -20 20 -13 0 -20 7 -20 20 0 13 7 20 20 20
13 0 20 7 20 20 0 13 7 20 20 20 17 0 20 -7 20 -40 l0 -40 60 0 c53 0 60 2 60
20 0 13 7 20 20 20 13 0 20 7 20 20 0 13 -7 20 -20 20 -13 0 -20 -7 -20 -20 0
-13 -7 -20 -20 -20 -18 0 -20 7 -20 80 0 73 2 80 20 80 13 0 20 7 20 20 0 13
-7 20 -20 20 -13 0 -20 7 -20 20 0 17 -7 20 -40 20 l-40 0 0 40 c0 33 -3 40
-20 40 -17 0 -20 7 -20 40 0 33 3 40 20 40 13 0 20 7 20 20 0 13 -7 20 -20 20
-13 0 -20 7 -20 20 0 13 7 20 20 20 18 0 20 7 20 60 l0 60 40 0 c33 0 40 3 40
20 0 13 7 20 20 20 13 0 20 -7 20 -20 0 -17 7 -20 40 -20 33 0 40 -3 40 -20 0
-17 -7 -20 -40 -20 -33 0 -40 -3 -40 -20 0 -13 7 -20 20 -20 13 0 20 -7 20
-20 0 -18 -7 -20 -60 -20 -53 0 -60 -2 -60 -20 0 -18 7 -20 60 -20 53 0 60 -2
60 -20 0 -13 7 -20 20 -20 13 0 20 -7 20 -20 0 -13 -7 -20 -20 -20 -18 0 -20
-7 -20 -60 0 -53 2 -60 20 -60 13 0 20 -7 20 -20 0 -13 7 -20 20 -20 18 0 20
7 20 60 0 53 -2 60 -20 60 -13 0 -20 7 -20 20 0 13 7 20 20 20 19 0 20 7 20
180 0 173 -1 180 -20 180 -13 0 -20 -7 -20 -20 0 -13 -7 -20 -20 -20 -13 0
-20 -7 -20 -20 0 -13 -7 -20 -20 -20 -17 0 -20 7 -20 40 0 33 -3 40 -20 40
-17 0 -20 -7 -20 -40 0 -33 -3 -40 -20 -40 -13 0 -20 7 -20 20 0 13 -7 20 -20
20 -17 0 -20 -7 -20 -40 0 -33 -3 -40 -20 -40 -18 0 -20 7 -20 60 0 53 -2 60
-20 60 -18 0 -20 7 -20 80 l0 80 -40 0 c-33 0 -40 3 -40 20 0 13 7 20 20 20
13 0 20 7 20 20 0 17 -7 20 -40 20 -33 0 -40 3 -40 20 0 13 7 20 20 20 13 0
20 7 20 20 0 13 -7 20 -20 20 -13 0 -20 -7 -20 -20 0 -17 -7 -20 -40 -20 -33
0 -40 3 -40 20 0 13 -7 20 -20 20 -13 0 -20 -7 -20 -20 0 -13 7 -20 20 -20 17
0 20 -7 20 -40 0 -33 3 -40 20 -40 13 0 20 -7 20 -20 0 -17 7 -20 40 -20 l40
0 0 -40 c0 -33 -3 -40 -20 -40 -13 0 -20 7 -20 20 0 17 -7 20 -40 20 l-40 0 0
-40 c0 -33 3 -40 20 -40 13 0 20 -7 20 -20 0 -17 -7 -20 -40 -20 l-40 0 0 80
0 80 -40 0 -40 0 0 40 c0 33 -3 40 -20 40 -13 0 -20 7 -20 20 0 13 -7 20 -20
20 -13 0 -20 -7 -20 -20 0 -13 7 -20 20 -20 18 0 20 -7 20 -60 0 -53 -2 -60
-20 -60 -17 0 -20 7 -20 40 0 33 -3 40 -20 40 -18 0 -20 7 -20 60 l0 60 -40 0
c-33 0 -40 -3 -40 -20z m400 -80 c0 -13 -7 -20 -20 -20 -13 0 -20 7 -20 20 0
13 7 20 20 20 13 0 20 -7 20 -20z m-320 -40 c0 -13 -7 -20 -20 -20 -13 0 -20
7 -20 20 0 13 7 20 20 20 13 0 20 -7 20 -20z m320 -120 c0 -13 -7 -20 -20 -20
-13 0 -20 7 -20 20 0 13 7 20 20 20 13 0 20 -7 20 -20z m80 0 c0 -13 -7 -20
-20 -20 -13 0 -20 7 -20 20 0 13 7 20 20 20 13 0 20 -7 20 -20z m-200 -80 c0
-13 7 -20 20 -20 18 0 20 -7 20 -60 0 -53 -2 -60 -20 -60 -13 0 -20 -7 -20
-20 0 -13 7 -20 20 -20 13 0 20 -7 20 -20 0 -17 7 -20 40 -20 33 0 40 -3 40
-20 0 -13 7 -20 20 -20 17 0 20 7 20 40 l0 40 -40 0 -40 0 0 40 c0 33 3 40 20
40 13 0 20 7 20 20 0 17 7 20 40 20 33 0 40 3 40 20 0 13 -7 20 -20 20 -13 0
-20 7 -20 20 0 17 7 20 40 20 l40 0 0 -60 c0 -53 2 -60 20 -60 13 0 20 -7 20
-20 0 -17 -7 -20 -40 -20 l-40 0 0 -60 c0 -53 -2 -60 -20 -60 -13 0 -20 -7
-20 -20 0 -13 7 -20 20 -20 13 0 20 -7 20 -20 0 -13 -7 -20 -20 -20 -13 0 -20
7 -20 20 0 18 -7 20 -60 20 l-60 0 0 -40 c0 -33 -3 -40 -20 -40 -13 0 -20 -7
-20 -20 0 -13 7 -20 20 -20 13 0 20 -7 20 -20 0 -13 7 -20 20 -20 13 0 20 -7
20 -20 0 -13 7 -20 20 -20 13 0 20 -7 20 -20 0 -13 7 -20 20 -20 13 0 20 -7
20 -20 0 -13 -7 -20 -20 -20 -13 0 -20 -7 -20 -20 0 -17 -7 -20 -40 -20 -33 0
-40 3 -40 20 0 17 7 20 40 20 33 0 40 3 40 20 0 17 -7 20 -40 20 l-40 0 0 40
c0 33 -3 40 -20 40 -13 0 -20 7 -20 20 0 13 -7 20 -20 20 -13 0 -20 7 -20 20
0 13 7 20 20 20 17 0 20 7 20 40 0 33 -3 40 -20 40 -13 0 -20 7 -20 20 0 18
-7 20 -60 20 -53 0 -60 -2 -60 -20 0 -17 7 -20 40 -20 33 0 40 -3 40 -20 0
-18 -7 -20 -60 -20 -53 0 -60 -2 -60 -20 0 -17 7 -20 40 -20 33 0 40 -3 40
-20 0 -13 7 -20 20 -20 13 0 20 -7 20 -20 0 -17 -7 -20 -40 -20 -33 0 -40 -3
-40 -20 0 -13 -7 -20 -20 -20 -13 0 -20 -7 -20 -20 0 -13 -7 -20 -20 -20 -17
0 -20 7 -20 40 0 33 -3 40 -20 40 -13 0 -20 7 -20 20 0 13 -7 20 -20 20 -13 0
-20 7 -20 20 0 17 -7 20 -40 20 -33 0 -40 3 -40 20 0 17 7 20 40 20 33 0 40
-3 40 -20 0 -17 7 -20 40 -20 l40 0 0 40 c0 33 3 40 20 40 17 0 20 7 20 40 l0
40 40 0 40 0 0 60 c0 53 2 60 20 60 17 0 20 7 20 40 0 33 3 40 20 40 13 0 20
7 20 20 0 13 7 20 20 20 13 0 20 -7 20 -20z m120 0 c0 -13 -7 -20 -20 -20 -13
0 -20 7 -20 20 0 13 7 20 20 20 13 0 20 -7 20 -20z m-640 -80 c0 -13 7 -20 20
-20 17 0 20 -7 20 -40 0 -33 -3 -40 -20 -40 -13 0 -20 -7 -20 -20 0 -13 -7
-20 -20 -20 -13 0 -20 7 -20 20 0 13 7 20 20 20 17 0 20 7 20 40 0 33 -3 40
-20 40 -13 0 -20 7 -20 20 0 13 7 20 20 20 13 0 20 -7 20 -20z m200 -40 c0
-13 -7 -20 -20 -20 -13 0 -20 7 -20 20 0 13 7 20 20 20 13 0 20 -7 20 -20z
m80 0 c0 -13 7 -20 20 -20 13 0 20 -7 20 -20 0 -13 -7 -20 -20 -20 -13 0 -20
7 -20 20 0 13 -7 20 -20 20 -13 0 -20 7 -20 20 0 13 7 20 20 20 13 0 20 -7 20
-20z m520 -80 c0 -13 -7 -20 -20 -20 -13 0 -20 7 -20 20 0 13 7 20 20 20 13 0
20 -7 20 -20z m240 -40 c0 -13 -7 -20 -20 -20 -13 0 -20 7 -20 20 0 13 7 20
20 20 13 0 20 -7 20 -20z m-240 -160 c0 -13 -7 -20 -20 -20 -13 0 -20 7 -20
20 0 13 7 20 20 20 13 0 20 -7 20 -20z m-80 -40 c0 -13 -7 -20 -20 -20 -13 0
-20 7 -20 20 0 13 7 20 20 20 13 0 20 -7 20 -20z m160 -120 l0 -60 -60 0 -60
0 0 60 0 60 60 0 60 0 0 -60z m-120 -120 c0 -13 -7 -20 -20 -20 -13 0 -20 7
-20 20 0 13 7 20 20 20 13 0 20 -7 20 -20z"/>
<path d="M720 920 c0 -33 -3 -40 -20 -40 -13 0 -20 -7 -20 -20 0 -13 7 -20 20
-20 13 0 20 7 20 20 0 13 7 20 20 20 17 0 20 7 20 40 0 33 -3 40 -20 40 -17 0
-20 -7 -20 -40z"/>
<path d="M920 860 c0 -13 7 -20 20 -20 13 0 20 7 20 20 0 13 -7 20 -20 20 -13
0 -20 -7 -20 -20z"/>
<path d="M720 780 c0 -13 7 -20 20 -20 17 0 20 -7 20 -40 0 -33 3 -40 20 -40
17 0 20 7 20 40 0 33 -3 40 -20 40 -13 0 -20 7 -20 20 0 13 -7 20 -20 20 -13
0 -20 -7 -20 -20z"/>
<path d="M520 560 l0 -40 40 0 c33 0 40 3 40 20 0 13 -7 20 -20 20 -13 0 -20
7 -20 20 0 13 -7 20 -20 20 -17 0 -20 -7 -20 -40z"/>
<path d="M1040 420 c0 -13 7 -20 20 -20 13 0 20 7 20 20 0 13 -7 20 -20 20
-13 0 -20 -7 -20 -20z"/>
<path d="M680 1300 c0 -13 7 -20 20 -20 13 0 20 7 20 20 0 13 -7 20 -20 20
-13 0 -20 -7 -20 -20z"/>
<path d="M1040 1180 l0 -140 140 0 140 0 0 140 0 140 -140 0 -140 0 0 -140z
m240 0 l0 -100 -100 0 -100 0 0 100 0 100 100 0 100 0 0 -100z"/>
<path d="M1120 1180 l0 -60 60 0 60 0 0 60 0 60 -60 0 -60 0 0 -60z"/>
<path d="M720 1220 c0 -13 7 -20 20 -20 13 0 20 7 20 20 0 13 -7 20 -20 20
-13 0 -20 -7 -20 -20z"/>
<path d="M1160 640 c0 -33 -3 -40 -20 -40 -13 0 -20 -7 -20 -20 0 -17 7 -20
40 -20 l40 0 0 60 c0 53 -2 60 -20 60 -17 0 -20 -7 -20 -40z"/>
<path d="M160 300 l0 -140 140 0 140 0 0 140 0 140 -140 0 -140 0 0 -140z
m240 0 l0 -100 -100 0 -100 0 0 100 0 100 100 0 100 0 0 -100z"/>
<path d="M240 300 l0 -60 60 0 60 0 0 60 0 60 -60 0 -60 0 0 -60z"/>
<path d="M1240 420 c0 -17 7 -20 40 -20 33 0 40 3 40 20 0 17 -7 20 -40 20
-33 0 -40 -3 -40 -20z"/>
<path d="M1280 340 c0 -13 7 -20 20 -20 13 0 20 7 20 20 0 13 -7 20 -20 20
-13 0 -20 -7 -20 -20z"/>
<path d="M480 260 c0 -13 7 -20 20 -20 13 0 20 7 20 20 0 13 -7 20 -20 20 -13
0 -20 -7 -20 -20z"/>
<path d="M1280 260 c0 -13 -7 -20 -20 -20 -17 0 -20 -7 -20 -40 l0 -40 40 0
c33 0 40 3 40 20 0 13 -7 20 -20 20 -13 0 -20 7 -20 20 0 13 7 20 20 20 13 0
20 7 20 20 0 13 -7 20 -20 20 -13 0 -20 -7 -20 -20z"/>
<path d="M1120 180 c0 -13 7 -20 20 -20 13 0 20 7 20 20 0 13 -7 20 -20 20
-13 0 -20 -7 -20 -20z"/>
</g>
</svg>
